<svg xmlns="http://www.w3.org/2000/svg" aria-hidden="true" style="position:absolute;width:0;height:0;overflow:hidden">
  <defs>
    <symbol id="icon-pick" viewBox="0 0 32 32">
      <path d="M26.151 1.405a3.2 3.2 0 1 1 5.297 3.591l-17.356 25.6c-1.269 1.872-4.028 1.872-5.297 0L.551 18.436a3.199 3.199 0 1 1 5.297-3.591l5.595 8.253L26.15 1.405z"/>
    </symbol>
    <symbol id="icon-shopping-cart" viewBox="0 0 32 32">
    <path d="M12 27.331v0-1.331c-1.475 0-2.669 1.194-2.669 2.669s1.194 2.669 2.669 2.669c1.475 0 2.669-1.194 2.669-2.669s-1.194-2.669-2.669-2.669v1.331z"></path>
    <path d="M26.669 27.331v0-1.331c-1.475 0-2.669 1.194-2.669 2.669s1.194 2.669 2.669 2.669c1.475 0 2.669-1.194 2.669-2.669s-1.194-2.669-2.669-2.669v1.331z"></path>
    <path d="M1.331 3.331h4.237l3.356 16.781c0.375 1.875 2.019 3.219 3.925 3.219h0.069l-0.019-1.331v1.331h12.963v-1.331l-0.025 1.331h0.075c1.906 0 3.55-1.344 3.925-3.219v-0.012l2.131-11.188c0.075-0.387-0.031-0.794-0.281-1.1s-0.631-0.481-1.025-0.481h-22.663c-0.737 0-1.331 0.6-1.331 1.331 0 0.738 0.6 1.331 1.331 1.331h21.056l-1.831 9.606v-0.012c-0.125 0.625-0.675 1.075-1.306 1.075h-13.063c-0.631 0-1.181-0.45-1.306-1.075v0l-3.575-17.85c-0.125-0.625-0.669-1.069-1.306-1.069h-5.338c-0.731 0-1.331 0.594-1.331 1.331s0.6 1.331 1.331 1.331z"></path>
    </symbol>
    <symbol id="icon-vector" viewBox="0 0 32 32">
      <path d="M29.082.314h-4.009c-1.237 0-2.24.983-2.24 2.195v3.929c0 1.212 1.003 2.195 2.24 2.195h4.009c1.237 0 2.24-.983 2.24-2.195V2.509c0-1.212-1.003-2.195-2.24-2.195zM6.73 23.04H2.412C1.08 23.04 0 24.023 0 25.235v3.929c0 1.213 1.08 2.195 2.412 2.195H6.73c1.332 0 2.412-.983 2.412-2.195v-3.929c0-1.212-1.08-2.195-2.412-2.195zM6.25 11.582H2.241c-1.237 0-2.24.983-2.24 2.195v3.929c0 1.212 1.003 2.195 2.24 2.195H6.25c1.237 0 2.24-.983 2.24-2.195v-3.929c0-1.212-1.003-2.195-2.24-2.195zM17.766 22.978h-4.009c-1.237 0-2.24.983-2.24 2.195v3.929c0 1.212 1.003 2.195 2.241 2.195h4.009c1.237 0 2.24-.983 2.24-2.195v-3.929c0-1.213-1.003-2.195-2.24-2.195zM6.25.086H2.241c-1.237 0-2.24.983-2.24 2.195V6.21c0 1.212 1.003 2.195 2.24 2.195H6.25c1.237 0 2.24-.983 2.24-2.195V2.281C8.49 1.069 7.487.086 6.25.086zM18.076 11.697h-4.009c-1.237 0-2.24.983-2.24 2.195v3.929c0 1.212 1.003 2.195 2.24 2.195h4.009c1.237 0 2.24-.983 2.24-2.195v-3.929c0-1.212-1.003-2.195-2.24-2.195zM29.333 22.978h-4.01c-1.237 0-2.24.983-2.24 2.195v3.929c0 1.212 1.003 2.195 2.24 2.195h4.009c1.237 0 2.24-.983 2.24-2.195v-3.929c0-1.213-1.003-2.195-2.24-2.195zM17.591.224h-4.009c-1.237 0-2.24.983-2.24 2.195v3.929c0 1.212 1.003 2.195 2.24 2.195h4.009c1.237 0 2.24-.984 2.24-2.196V2.418c0-1.212-1.003-2.195-2.24-2.195zM29.044 11.926h-4.01c-1.237 0-2.24.983-2.24 2.195v3.929c0 1.212 1.003 2.195 2.24 2.195h4.009c1.237 0 2.24-.983 2.24-2.195v-3.929c0-1.212-1.003-2.195-2.24-2.195z"/>
    </symbol>
    <symbol id="icon-youtube" viewBox="0 0 31 32">
      <path d="M23.404 6.327c-1.313-.077-4.017-.154-8.11-.154h-.541c-3.939 0-6.566.077-7.879.232-1.777.154-3.012.618-3.708 1.236-.618.541-1.081 1.545-1.236 2.858-.077.85-.154 2.626-.154 5.33v.386c0 2.549.077 4.326.232 5.175.232 1.236.618 2.163 1.39 2.703.772.618 2.085 1.004 3.939 1.159 1.313.077 4.017.154 8.11.154h.541c3.939 0 6.566-.077 7.879-.232 1.777-.154 3.012-.618 3.708-1.236.618-.541 1.081-1.545 1.236-2.858.077-.85.154-2.626.154-5.33v-.386c0-2.549-.077-4.326-.232-5.175-.232-1.236-.618-2.163-1.39-2.703-.772-.618-2.086-1.004-3.939-1.159zm-3.012 9.501-8.497 5.098V10.73l8.497 5.098z"/>
    </symbol>
    <symbol id="icon-instagram" viewBox="0 0 31 32">
      <path d="M27.727 10.92a8.935 8.935 0 0 0-.575-3.037 6.322 6.322 0 0 0-3.614-3.608 9.092 9.092 0 0 0-3-.576c-1.32-.059-1.739-.075-5.091-.075s-3.781 0-5.092.075a9.066 9.066 0 0 0-2.999.576 6.317 6.317 0 0 0-3.614 3.608 8.96 8.96 0 0 0-.575 2.994c-.059 1.32-.077 1.738-.077 5.084s0 3.774.077 5.084a9.037 9.037 0 0 0 .575 2.997 6.328 6.328 0 0 0 3.615 3.607c.955.373 1.97.584 2.999.617 1.322.059 1.74.077 5.092.077s3.781 0 5.092-.077a9.074 9.074 0 0 0 3-.574 6.334 6.334 0 0 0 3.614-3.608c.361-.959.554-1.97.575-2.997.059-1.318.077-1.736.077-5.084-.003-3.346-.003-3.771-.08-5.082zM15.439 22.289c-3.506 0-6.345-2.835-6.345-6.335s2.84-6.335 6.345-6.335c3.503 0 6.346 2.835 6.346 6.335s-2.843 6.335-6.346 6.335zm6.598-11.427a1.477 1.477 0 1 1 0-2.954 1.476 1.476 0 1 1 0 2.954z"/>
      <path d="M15.441 19.822a3.866 3.866 0 1 0 0-7.732 3.866 3.866 0 0 0 0 7.732z"/>
    </symbol>
    <symbol id="icon-arrow" viewBox="0 0 30 32">
      <path d="M29.867 4.588 25.442.163v22.123L3.319.163 0 3.482l22.124 22.123H0l4.425 4.425h25.442V4.588z"/>
    </symbol>
    <symbol id="icon-basket" viewBox="0 0 32 32">
      <path stroke-width="2" d="M5.114 31 1.181 7.4H30.82L26.887 31H5.115z"/>
      <path d="M6.533 7.467C6.533 2.239 10.771-2 16-2s9.467 4.238 9.467 9.467h-4a5.467 5.467 0 0 0-10.934 0h-4zM23.467 12.8zm-16.934 0V7.467A9.467 9.467 0 0 1 16-2v4a5.467 5.467 0 0 0-5.467 5.467V12.8h-4zM16-2a9.467 9.467 0 0 1 9.467 9.467V12.8h-4V7.467A5.467 5.467 0 0 0 16 2v-4z"/>
    </symbol>
    <symbol id="icon-cross" viewBox="0 0 32 32">
      <path stroke-linecap="round" stroke-linejoin="round" stroke-width="2.667" d="M24 8 8 24M8 8l16 16"/>
    </symbol>
    <symbol id="icon-facebook" viewBox="0 0 31 32">
      <path d="M18.847 5.015h.927v3.476h-1.159c-.464 0-.927 0-1.159.232-.232.232-.232.463-.232 1.004v1.236h2.549v2.935h-2.549v12.745h-3.939V13.821h-2.086v-2.935h2.086V9.882c0-1.699.232-2.935.695-3.476.695-1.004 2.086-1.468 4.171-1.468.232.077.463.077.695.077z"/>
    </symbol>
    <symbol id="icon-gg_menu-left" viewBox="0 0 32 32">
      <path d="M2.667 7.993c0-.733.595-1.327 1.327-1.327h10.68a1.326 1.326 0 0 1 0 2.654H3.994a1.326 1.326 0 0 1-1.327-1.327zm0 8.007c0-.733.595-1.327 1.327-1.327h24.013a1.326 1.326 0 0 1 0 2.654H3.994A1.326 1.326 0 0 1 2.667 16zm1.326 6.68a1.326 1.326 0 0 0 0 2.654h16.013a1.326 1.326 0 0 0 0-2.654H3.993z"/>
    </symbol>
    <symbol id="icon-cross-modal" viewBox="0 0 32 32">
<path stroke-linejoin="round" stroke-linecap="round" stroke-miterlimit="4" stroke-width="2.6667" d="M24 8l-16 16"></path>
<path stroke-linejoin="round" stroke-linecap="round" stroke-miterlimit="4" stroke-width="2.6667" d="M8 8l16 16"></path>
</symbol>
<symbol id="icon-checkbox-ok" viewBox="0 0 32 32">
<path fill="#a1c487" style="fill: var(--color1, #a1c487)" d="M19.807 10.527c0.372-0.549 1.118-0.692 1.667-0.32s0.692 1.118 0.32 1.667l-6.508 9.6c-0.476 0.702-1.51 0.702-1.986 0l-3.091-4.56c-0.372-0.549-0.229-1.295 0.32-1.667s1.295-0.229 1.667 0.32l2.098 3.095 5.515-8.135z"></path>
<path fill="none" stroke="#a1c487" style="stroke: var(--color1, #a1c487)" stroke-linejoin="miter" stroke-linecap="butt" stroke-miterlimit="4" stroke-width="3" d="M8 1.5h16c3.59 0 6.5 2.91 6.5 6.5v16c0 3.59-2.91 6.5-6.5 6.5h-16c-3.59 0-6.5-2.91-6.5-6.5v-16c0-3.59 2.91-6.5 6.5-6.5z"></path>
</symbol>
<symbol id="icon-checkbox" viewBox="0 0 32 32">
<path fill="none" stroke="#a1c487" style="stroke: var(--color1, #a1c487)" stroke-linejoin="miter" stroke-linecap="butt" stroke-miterlimit="4" stroke-width="3" d="M8 1.5h16c3.59 0 6.5 2.91 6.5 6.5v16c0 3.59-2.91 6.5-6.5 6.5h-16c-3.59 0-6.5-2.91-6.5-6.5v-16c0-3.59 2.91-6.5 6.5-6.5z"></path>
</symbol>
  </defs>
</svg>
